<?xml version="1.0" encoding="UTF-8" standalone="no"?>
<!DOCTYPE svg PUBLIC "-//W3C//DTD SVG 1.1//EN"
 "http://www.w3.org/Graphics/SVG/1.1/DTD/svg11.dtd">
<!-- Generated by graphviz version 2.26.3 (20100126.1600)
 -->
<!-- Title: C:/Users/M43507/Documents/Arduino/libraries/ZSharpIR/ZSharpIR.cpp Pages: 1 -->
<svg width="190pt" height="172pt"
 viewBox="0.00 0.00 190.00 172.00" xmlns="http://www.w3.org/2000/svg" xmlns:xlink="http://www.w3.org/1999/xlink">
<g id="graph1" class="graph" transform="scale(1 1) rotate(0) translate(4 168)">
<title>C:/Users/M43507/Documents/Arduino/libraries/ZSharpIR/ZSharpIR.cpp</title>
<!-- Node0 -->
<g id="node1" class="node"><title>Node0</title>
<polygon fill="#bfbfbf" stroke="black" points="-0.5,-116.5 -0.5,-163.5 144.5,-163.5 144.5,-116.5 -0.5,-116.5"/>
<text text-anchor="start" x="7.5" y="-150.5" font-family="Helvetica,sans-Serif" font-size="10.00">C:/Users/M43507/Documents</text>
<text text-anchor="start" x="7.5" y="-137.5" font-family="Helvetica,sans-Serif" font-size="10.00">/Arduino/libraries/ZSharpIR</text>
<text text-anchor="middle" x="72" y="-124.5" font-family="Helvetica,sans-Serif" font-size="10.00">/ZSharpIR.cpp</text>
</g>
<!-- Node1 -->
<g id="node3" class="node"><title>Node1</title>
<polygon fill="none" stroke="#bfbfbf" points="54,-0.5 54,-21.5 112,-21.5 112,-0.5 54,-0.5"/>
<text text-anchor="middle" x="83" y="-8.5" font-family="Helvetica,sans-Serif" font-size="10.00">Arduino.h</text>
</g>
<!-- Node0&#45;&gt;Node1 -->
<g id="edge2" class="edge"><title>Node0&#45;&gt;Node1</title>
<path fill="none" stroke="midnightblue" d="M50.3396,-116.459C38.0516,-100.145 26.6473,-77.8689 35,-58 39.9641,-46.1918 49.5035,-35.8648 58.7787,-27.9215"/>
<polygon fill="midnightblue" stroke="midnightblue" points="61.1007,-30.5466 66.7401,-21.5773 56.7382,-25.0721 61.1007,-30.5466"/>
</g>
<!-- Node2 -->
<g id="node5" class="node"><title>Node2</title>
<polygon fill="none" stroke="#bfbfbf" points="44,-58.5 44,-79.5 100,-79.5 100,-58.5 44,-58.5"/>
<text text-anchor="middle" x="72" y="-66.5" font-family="Helvetica,sans-Serif" font-size="10.00">WMath.h</text>
</g>
<!-- Node0&#45;&gt;Node2 -->
<g id="edge4" class="edge"><title>Node0&#45;&gt;Node2</title>
<path fill="none" stroke="midnightblue" d="M72,-116.358C72,-107.719 72,-98.0215 72,-89.6624"/>
<polygon fill="midnightblue" stroke="midnightblue" points="75.5001,-89.6462 72,-79.6462 68.5001,-89.6463 75.5001,-89.6462"/>
</g>
<!-- Node3 -->
<g id="node7" class="node"><title>Node3</title>
<a xlink:href="_z_sharp_i_r_8h.html" target="_top" xlink:title="ZSharpIR.h">
<polygon fill="none" stroke="black" points="117.5,-58.5 117.5,-79.5 182.5,-79.5 182.5,-58.5 117.5,-58.5"/>
<text text-anchor="middle" x="150" y="-66.5" font-family="Helvetica,sans-Serif" font-size="10.00">ZSharpIR.h</text>
</a>
</g>
<!-- Node0&#45;&gt;Node3 -->
<g id="edge6" class="edge"><title>Node0&#45;&gt;Node3</title>
<path fill="none" stroke="midnightblue" d="M97.9729,-116.358C108.637,-106.651 120.768,-95.6082 130.633,-86.6289"/>
<polygon fill="midnightblue" stroke="midnightblue" points="133.265,-88.966 138.304,-79.6462 128.553,-83.7894 133.265,-88.966"/>
</g>
<!-- Node3&#45;&gt;Node1 -->
<g id="edge8" class="edge"><title>Node3&#45;&gt;Node1</title>
<path fill="none" stroke="midnightblue" d="M137.711,-58.3619C127.983,-49.9408 114.202,-38.0105 102.905,-28.2308"/>
<polygon fill="midnightblue" stroke="midnightblue" points="105.062,-25.4695 95.2109,-21.5707 100.481,-30.7619 105.062,-25.4695"/>
</g>
</g>
</svg>
